<?xml version="1.0" encoding="UTF-8" standalone="no"?>
<!-- Created with Inkscape (http://www.inkscape.org/) -->
<svg width="1000" height="1000" xmlns="http://www.w3.org/2000/svg">
 <metadata id="metadata6101">image/svg+xml</metadata>

 <g>
  <title>background</title>
  <rect x="-1" y="-1" width="1002" height="1002" id="canvas_background" fill="none"/>
 </g>
 <g>
  <title>Layer 1</title>
  <g id="layer1">
   <path d="m499.98987,999.56082c275.8882,0 499.5101,-223.60164 499.5101,-499.48986c0,-275.92877 -223.6219,-499.57096 -499.5101,-499.57096c-275.90849,0 -499.48986,223.64219 -499.48986,499.57096c0,275.88822 223.58137,499.48986 499.48986,499.48986" id="path4887" fill-rule="nonzero" fill="#cc0001"/>
   <path d="m311.52302,798.36192l34.79015,0l0,-567.18466l-34.79015,0l0,567.18466z" id="path4889" fill-rule="nonzero" fill="#ffffff"/>
   <path d="m311.52302,798.36192l34.79015,0l0,-567.18466l-34.79015,0l0,567.18466z" id="path4891" fill-rule="nonzero" fill="#ffffff"/>
   <path d="m168.75371,437.78931c0.60822,-36.14849 62.56548,-37.18246 62.56548,-1.74356l0.56767,30.73534l47.36,0l0,-28.38356c3.06137,-94.98356 -159.69808,-94.84164 -158.4411,-2.35178l0,163.46904c-1.25698,92.48987 161.54302,94.82137 158.64384,0l0,-34.30356l-48.13041,0l0,36.63507c0,35.52 -61.85589,36.0674 -62.48439,0l0,-165.80055l-0.0811,1.74356" id="path4893" fill-rule="nonzero" fill="#ffffff"/>
   <path d="m439.33017,400.82986c0,0 8.2718,-12.26575 29.9446,-24.26794c27.4713,-15.22576 54.3546,-0.0649 50.462,-1.74357c21.6526,9.54905 29.8432,32.80329 31.3841,58.7337l0,193.51507l30.4717,0l0,35.52l-78.3589,0l-0.049,-231.28548c0,-33.73589 -56.9091,-32.68164 -57.4565,1.58137l0.065,-1.58137l0,231.28548l-70.3101,0l0,-35.60109l22.3014,0.0811l0,-216.70849l-26.4576,-0.16219l0,-35.37809l67.8165,0l0.1832,26.01151" id="path4895" fill-rule="nonzero" fill="#ffffff"/>
   <path d="m794.28687,598.72411c1.5003,25.93041 9.6909,49.20493 31.3436,58.79452c-4.0548,-1.86521 10.5424,5.41315 25.5857,5.27123c7.9069,-0.20274 46.103,-0.16219 46.103,-0.16219l0,-35.56055c0,0 -19.2603,-0.24329 -29.5189,-0.16219c-13.0362,0.16219 -24.2882,-6.02137 -25.2411,-24.34904l0.1298,-192.0148l-0.1298,-0.34547l46.2449,0l0,-34.81041l-46.3868,0l0.2644,-0.56767l0,-74.4663l-48.394,0l0,298.37206" id="path4897" fill-rule="nonzero" fill="#ffffff"/>
   <path d="m707.16957,565.21123l0,36.63507c0,35.52 -61.8761,36.0674 -62.5249,0l0,-76.27068l101.674,0.06488c4.8049,0 8.7786,-3.93315 8.7786,-8.81918l0,-78.41973c2.9803,-94.98356 -159.6778,-94.84165 -158.4005,-2.35178l0,163.46904c-1.2765,92.48986 161.543,94.82137 158.5627,0l0,-34.30356l-48.0899,0l0,-0.00406zm-62.5249,-129.40877c0.8304,-35.49972 62.5249,-35.19561 62.5249,0.24329l-0.1459,53.46247l-62.3831,0.03244l0,-53.74631" id="path4899" fill-rule="nonzero" fill="#ffffff"/>
  </g>
 </g>
</svg>