<?xml version="1.0" encoding="UTF-8"?>
<svg width="19px" height="14px" viewBox="0 0 19 14" version="1.1" xmlns="http://www.w3.org/2000/svg" xmlns:xlink="http://www.w3.org/1999/xlink">
    <!-- Generator: sketchtool 50.2 (55047) - http://www.bohemiancoding.com/sketch -->
    <title>57B240EB-FE3D-4130-974C-629BC850A811</title>
    <desc>Created with sketchtool.</desc>
    <defs></defs>
    <g id="Page-1" stroke="none" stroke-width="1" fill="none" fill-rule="evenodd">
        <g id="Product-Details" transform="translate(-16.000000, -1147.000000)" fill="#AEBECD" fill-rule="nonzero">
            <g id="Tabs" transform="translate(0.000000, 271.000000)">
                <g id="Specs" transform="translate(10.000000, 57.000000)">
                    <g id="Performance" transform="translate(0.000000, 693.000000)">
                        <g id="Processor" transform="translate(1.000000, 31.000000)">
                            <g id="if_computer_chip_electronic_circuit_solicon_integrated_998241" transform="translate(14.500000, 102.000000) rotate(-270.000000) translate(-14.500000, -102.000000) translate(8.000000, 92.500000)">
                                <path d="M2.856451,0.97357 C2.7253525,0.973505 2.5987325,1.09213 2.5987325,1.28713 L2.5987325,1.59055 C2.6000325,1.6016 2.6000325,1.61265 2.6000325,1.6237 L2.6000325,2.9237 C2.6000325,2.9328 2.599415,2.94255 2.5987325,2.95165 L2.5987325,4.190745 C2.6000325,4.201795 2.6000325,4.212845 2.6000325,4.223895 L2.6000325,5.523895 C2.6000325,5.532995 2.599415,5.542745 2.5987325,5.551845 L2.5987325,6.790875 C2.6000325,6.801925 2.6000325,6.812975 2.6000325,6.824025 L2.6000325,8.124025 C2.6000325,8.133125 2.599415,8.142875 2.5987325,8.151975 L2.5987325,9.39107 C2.6000325,9.40212 2.6000325,9.41317 2.6000325,9.42422 L2.6000325,10.72422 C2.6000325,10.73332 2.599415,10.74307 2.5987325,10.75217 L2.5987325,11.9912 C2.6000325,12.00225 2.6000325,12.0133 2.6000325,12.02435 L2.6000325,13.32435 C2.6000325,13.33345 2.599415,13.3432 2.5987325,13.3523 L2.5987325,14.591395 C2.6000325,14.602445 2.6000325,14.613495 2.6000325,14.624545 L2.6000325,15.924545 C2.6000325,15.933645 2.599415,15.943395 2.5987325,15.952495 L2.5987325,17.143295 C2.6000325,17.154345 2.6000325,17.165395 2.6000325,17.176445 L2.6000325,18.524675 C2.5993825,18.531175 2.5993825,18.533775 2.5987325,18.538975 C2.6006825,18.73157 2.726048,18.85 2.856451,18.85 L10.1435555,18.85 C10.274264,18.85 10.399974,18.731115 10.401274,18.53774 C10.400624,18.53124 10.400624,18.52929 10.399974,18.52474 L10.399974,17.22474 C10.399974,17.21369 10.399948,17.20264 10.401274,17.19159 L10.401274,15.94489 C10.400624,15.93839 10.399974,15.93124 10.399974,15.92474 L10.399974,14.62474 C10.399974,14.61369 10.399948,14.60264 10.401274,14.59159 L10.401274,13.34489 C10.400624,13.33839 10.399974,13.33124 10.399974,13.32474 L10.399974,12.02474 C10.399974,12.01369 10.399948,12.00264 10.401274,11.99159 L10.401274,10.74489 C10.400624,10.73839 10.399974,10.73124 10.399974,10.72474 L10.399974,9.42474 C10.399974,9.41369 10.399948,9.40264 10.401274,9.39159 L10.401274,8.144955 C10.400624,8.138455 10.399974,8.131305 10.399974,8.124805 L10.399974,6.824805 C10.399974,6.813755 10.399948,6.802705 10.401274,6.791655 L10.401274,5.544955 C10.400624,5.538455 10.399974,5.531305 10.399974,5.524805 L10.399974,4.224805 C10.399974,4.213755 10.399948,4.202705 10.401274,4.191655 L10.401274,2.944955 C10.400624,2.938455 10.399974,2.931305 10.399974,2.924805 L10.399974,1.624805 C10.399974,1.613755 10.399948,1.602705 10.401274,1.591655 L10.401274,1.288235 C10.401274,1.0933 10.274875,0.974675 10.1435555,0.974675 L7.5816455,0.974675 L7.5143575,0.974675 C7.4884875,1.004575 7.4402705,1.07861 7.3709025,1.17273 C7.2285655,1.36591 6.935266,1.636115 6.5,1.636115 C6.0647405,1.636115 5.771441,1.36591 5.629104,1.17273 C5.5597295,1.07861 5.510245,1.004445 5.484375,0.974675 L4.9397465,0.974675 L2.856451,0.974675 L2.856451,0.97357 Z M1.3,1.29857 L1.3,1.94857 L0,1.94857 L0,2.59857 L1.3,2.59857 L1.3,3.24857 L1.9487325,3.24857 L1.9487325,1.29857 L1.3,1.29857 Z M11.051274,1.29857 L11.051274,3.24857 L11.7,3.24857 L11.7,2.59857 L13,2.59857 L13,1.94857 L11.7,1.94857 L11.7,1.29857 L11.051274,1.29857 Z M3.5521525,1.62357 C3.5597575,1.62331 3.5673625,1.62331 3.5749675,1.62357 C3.7544585,1.62357 3.8999675,1.769105 3.8999675,1.94857 C3.8999675,2.128035 3.7544585,2.27357 3.5749675,2.27357 C3.3954765,2.27357 3.2499675,2.128035 3.2499675,1.94857 C3.249545,1.77762 3.3816055,1.635595 3.55212,1.62357 L3.5521525,1.62357 Z M1.3,3.89857 L1.3,4.54857 L0,4.54857 L0,5.19857 L1.3,5.19857 L1.3,5.84857 L1.9487325,5.84857 L1.9487325,3.89857 L1.3,3.89857 Z M11.051274,3.89857 L11.051274,5.84857 L11.7,5.84857 L11.7,5.19857 L13,5.19857 L13,4.54857 L11.7,4.54857 L11.7,3.89857 L11.051274,3.89857 Z M1.3,6.49857 L1.3,7.14857 L0,7.14857 L0,7.79857 L1.3,7.79857 L1.3,8.44857 L1.9487325,8.44857 L1.9487325,6.49857 L1.3,6.49857 Z M11.051274,6.49857 L11.051274,8.44857 L11.7,8.44857 L11.7,7.79857 L13,7.79857 L13,7.14857 L11.7,7.14857 L11.7,6.49857 L11.051274,6.49857 Z M1.3,9.09857 L1.3,9.74857 L0,9.74857 L0,10.39857 L1.3,10.39857 L1.3,11.04857 L1.9487325,11.04857 L1.9487325,9.09857 L1.3,9.09857 Z M11.051274,9.09857 L11.051274,11.04857 L11.7,11.04857 L11.7,10.39857 L13,10.39857 L13,9.74857 L11.7,9.74857 L11.7,9.09857 L11.051274,9.09857 Z M1.3,11.69857 L1.3,12.34857 L0,12.34857 L0,12.99857 L1.3,12.99857 L1.3,13.64857 L1.9487325,13.64857 L1.9487325,11.69857 L1.3,11.69857 Z M11.051274,11.69857 L11.051274,13.64857 L11.7,13.64857 L11.7,12.99857 L13,12.99857 L13,12.34857 L11.7,12.34857 L11.7,11.69857 L11.051274,11.69857 Z M1.3,14.29857 L1.3,14.94857 L0,14.94857 L0,15.59857 L1.3,15.59857 L1.3,16.24857 L1.9487325,16.24857 L1.9487325,14.29857 L1.3,14.29857 Z M11.051274,14.29857 L11.051274,16.24857 L11.7,16.24857 L11.7,15.59857 L13,15.59857 L13,14.94857 L11.7,14.94857 L11.7,14.29857 L11.051274,14.29857 Z M1.3,16.85034 L1.3,17.54857 L0,17.54857 L0,18.19857 L1.3,18.19857 L1.3,18.84857 L1.9487325,18.84857 L1.9487325,16.85034 L1.3,16.85034 Z M11.051274,16.89844 L11.051274,18.84844 L11.7,18.84844 L11.7,18.19844 L13,18.19844 L13,17.54844 L11.7,17.54844 L11.7,16.89844 L11.051274,16.89844 Z" id="rect4927"></path>
                            </g>
                        </g>
                    </g>
                </g>
            </g>
        </g>
    </g>
</svg>