<?xml version="1.0" encoding="UTF-8"?>
<svg width="110px" height="100px" viewBox="209 63 95 121" version="1.1" xmlns="http://www.w3.org/2000/svg" xmlns:xlink="http://www.w3.org/1999/xlink">
    <!-- Generator: sketchtool 50.2 (55047) - http://www.bohemiancoding.com/sketch -->
    <title>CDDA1972-CD13-4E52-872F-BCA21D243746</title>
    <desc>Created with sketchtool.</desc>
    <defs></defs>
    <g id="Page-1" stroke="none" stroke-width="1" fill="none" fill-rule="evenodd">
        <g id="Cost-&amp;-Plans" transform="translate(-107.000000, -453.000000)" fill="#FFFFFF73" fill-rule="nonzero">
            <g id="Group-12" transform="translate(107.000000, 453.000000)">
                <g id="ic_memory_blue_48px">
                    <path d="M203,86 C200.238576,86 198,88.2385763 198,91 L198,157 C198,159.761424 200.238576,162 203,162 L311,162 C313.761424,162 316,159.761424 316,157 L316,91 C316,88.2385763 313.761424,86 311,86 L203,86 Z M203,85 L311,85 C314.313708,85 317,87.6862915 317,91 L317,157 C317,160.313708 314.313708,163 311,163 L203,163 C199.686292,163 197,160.313708 197,157 L197,91 C197,87.6862915 199.686292,85 203,85 Z M206,63 L210,63 C211.656854,63 213,64.3431458 213,66 L213,82 L203,82 L203,66 C203,64.3431458 204.343146,63 206,63 Z M234,63 L238,63 C239.656854,63 241,64.3431458 241,66 L241,82 L231,82 L231,66 C231,64.3431458 232.343146,63 234,63 Z M262,63 L266,63 C267.656854,63 269,64.3431458 269,66 L269,82 L259,82 L259,66 C259,64.3431458 260.343146,63 262,63 Z M290,63 L294,63 C295.656854,63 297,64.3431458 297,66 L297,82 L287,82 L287,66 C287,64.3431458 288.343146,63 290,63 Z M220,63 L224,63 C225.656854,63 227,64.3431458 227,66 L227,82 L217,82 L217,66 C217,64.3431458 218.343146,63 220,63 Z M248,63 L252,63 C253.656854,63 255,64.3431458 255,66 L255,82 L245,82 L245,66 C245,64.3431458 246.343146,63 248,63 Z M276,63 L280,63 C281.656854,63 283,64.3431458 283,66 L283,82 L273,82 L273,66 C273,64.3431458 274.343146,63 276,63 Z M304,63 L308,63 C309.656854,63 311,64.3431458 311,66 L311,82 L301,82 L301,66 C301,64.3431458 302.343146,63 304,63 Z M206,184 C204.343146,184 203,182.656854 203,181 L203,165 L213,165 L213,181 C213,182.656854 211.656854,184 210,184 L206,184 Z M234,184 C232.343146,184 231,182.656854 231,181 L231,165 L241,165 L241,181 C241,182.656854 239.656854,184 238,184 L234,184 Z M262,184 C260.343146,184 259,182.656854 259,181 L259,165 L269,165 L269,181 C269,182.656854 267.656854,184 266,184 L262,184 Z M290,184 C288.343146,184 287,182.656854 287,181 L287,165 L297,165 L297,181 C297,182.656854 295.656854,184 294,184 L290,184 Z M220,184 C218.343146,184 217,182.656854 217,181 L217,165 L227,165 L227,181 C227,182.656854 225.656854,184 224,184 L220,184 Z M248,184 C246.343146,184 245,182.656854 245,181 L245,165 L255,165 L255,181 C255,182.656854 253.656854,184 252,184 L248,184 Z M276,184 C274.343146,184 273,182.656854 273,181 L273,165 L283,165 L283,181 C283,182.656854 281.656854,184 280,184 L276,184 Z M304,184 C302.343146,184 301,182.656854 301,181 L301,165 L311,165 L311,181 C311,182.656854 309.656854,184 308,184 L304,184 Z" />
                </g>
            </g>
        </g>
    </g>
</svg>
