<?xml version="1.0" encoding="UTF-8"?>
<svg width="18px" height="18px" viewBox="0 0 18 18" version="1.1" xmlns="http://www.w3.org/2000/svg" xmlns:xlink="http://www.w3.org/1999/xlink">
    <!-- Generator: sketchtool 50.2 (55047) - http://www.bohemiancoding.com/sketch -->
    <title>43D94364-5B5F-4A84-8E61-7F6B558C6F64</title>
    <desc>Created with sketchtool.</desc>
    <defs></defs>
    <g id="Page-1" stroke="none" stroke-width="1" fill="none" fill-rule="evenodd">
        <g id="Product-Details" transform="translate(-26.000000, -346.000000)" fill="#FF9B25" fill-rule="nonzero">
            <g id="Promotion" transform="translate(10.000000, 330.000000)">
                <g id="ic_pages_24px" transform="translate(16.000000, 16.000000)">
                    <path d="M0,2 L0,8 L5,8 L4,4 L8,5 L8,0 L2,0 C0.9,0 0,0.9 0,2 Z M5,10 L0,10 L0,16 C0,17.1 0.9,18 2,18 L8,18 L8,13 L4,14 L5,10 Z M14,14 L10,13 L10,18 L16,18 C17.1,18 18,17.1 18,16 L18,10 L13,10 L14,14 Z M16,0 L10,0 L10,5 L14,4 L13,8 L18,8 L18,2 C18,0.9 17.1,0 16,0 Z" id="Shape-Copy-6"></path>
                </g>
            </g>
        </g>
    </g>
</svg>