<?xml version="1.0" encoding="UTF-8"?>
<svg width="23px" height="23px" viewBox="0 0 23 23" version="1.1" xmlns="http://www.w3.org/2000/svg" xmlns:xlink="http://www.w3.org/1999/xlink">
    <!-- Generator: sketchtool 50.2 (55047) - http://www.bohemiancoding.com/sketch -->
    <title>E65EE467-E751-4E0A-B850-9784E5FD2E28</title>
    <desc>Created with sketchtool.</desc>
    <defs></defs>
    <g id="Page-1" stroke="none" stroke-width="1" fill="none" fill-rule="evenodd">
        <g id="Product-Details" transform="translate(-11.000000, -1052.000000)" fill="#AEBECD" fill-rule="nonzero">
            <g id="Tabs" transform="translate(0.000000, 271.000000)">
                <g id="Specs" transform="translate(10.000000, 57.000000)">
                    <g id="Performance" transform="translate(0.000000, 693.000000)">
                        <g id="Processor" transform="translate(1.000000, 31.000000)">
                            <g id="processor">
                                <path d="M21,4 C21,2.896 20.104,2 19,2 L4,2 C2.896,2 2,2.896 2,4 L2,19 C2,20.104 2.896,21 4,21 L19,21 C20.104,21 21,20.104 21,19 L21,4 Z M19,18.25 C19,18.664 18.664,19 18.25,19 L4.75,19 C4.336,19 4,18.664 4,18.25 L4,4.75 C4,4.336 4.336,4 4.75,4 L18.25,4 C18.664,4 19,4.336 19,4.75 L19,18.25 Z M10,22 L10,23 L9,23 L9,22 L10,22 Z M12,22 L12,23 L11,23 L11,22 L12,22 Z M8,22 L8,23 L7,23 L7,22 L8,22 Z M14,22 L14,23 L13,23 L13,22 L14,22 Z M16,22 L16,23 L15,23 L15,22 L16,22 Z M10,0 L10,1 L9,1 L9,0 L10,0 Z M12,0 L12,1 L11,1 L11,0 L12,0 Z M8,0 L8,1 L7,1 L7,0 L8,0 Z M14,0 L14,1 L13,1 L13,0 L14,0 Z M16,0 L16,1 L15,1 L15,0 L16,0 Z M22,13 L23,13 L23,14 L22,14 L22,13 Z M22,9 L23,9 L23,10 L22,10 L22,9 Z M22,7 L23,7 L23,8 L22,8 L22,7 Z M22,11 L23,11 L23,12 L22,12 L22,11 Z M22,15 L23,15 L23,16 L22,16 L22,15 Z M0,13 L1,13 L1,14 L0,14 L0,13 Z M0,9 L1,9 L1,10 L0,10 L0,9 Z M0,7 L1,7 L1,8 L0,8 L0,7 Z M0,11 L1,11 L1,12 L0,12 L0,11 Z M0,15 L1,15 L1,16 L0,16 L0,15 Z M17,17 L6,17 L6,6 L17,6 L17,17 Z"></path>
                            </g>
                        </g>
                    </g>
                </g>
            </g>
        </g>
    </g>
</svg>