<?xml version="1.0" encoding="UTF-8"?>
<svg width="138px" height="138px" viewBox="0 0 138 138" version="1.1" xmlns="http://www.w3.org/2000/svg" xmlns:xlink="http://www.w3.org/1999/xlink">
    <!-- Generator: sketchtool 50.2 (55047) - http://www.bohemiancoding.com/sketch -->
    <title>8E4F1A07-06AC-480B-8CE4-E8DB4D4D9F58</title>
    <desc>Created with sketchtool.</desc>
    <defs>
        <linearGradient x1="50%" y1="112.821818%" x2="50%" y2="0%" id="linearGradient-1">
            <stop stop-color="#3D2AD1" offset="0%"></stop>
            <stop stop-color="#6F4EE6" offset="100%"></stop>
        </linearGradient>
    </defs>
    <g id="Page-1" stroke="none" stroke-width="1" fill="none" fill-rule="evenodd">
        <g id="Product-Details" transform="translate(-28.000000, -1055.000000)" fill="url(#linearGradient-1)">
            <g id="Tabs" transform="translate(0.000000, 271.000000)">
                <g id="Specs" transform="translate(10.000000, 149.000000)">
                    <g id="Performance" transform="translate(0.000000, 580.000000)">
                        <g id="Combined-Shape-Copy">
                            <path d="M36,55 L40,55 C41.6568542,55 43,56.3431458 43,58 L43,62 L33,62 L33,58 C33,56.3431458 34.3431458,55 36,55 Z M92,55 L96,55 C97.6568542,55 99,56.3431458 99,58 L99,62 L89,62 L89,58 C89,56.3431458 90.3431458,55 92,55 Z M64,55 L68,55 C69.6568542,55 71,56.3431458 71,58 L71,62 L61,62 L61,58 C61,56.3431458 62.3431458,55 64,55 Z M120,55 L124,55 C125.656854,55 127,56.3431458 127,58 L127,62 L117,62 L117,58 C117,56.3431458 118.343146,55 120,55 Z M50,55 L54,55 C55.6568542,55 57,56.3431458 57,58 L57,62 L47,62 L47,58 C47,56.3431458 48.3431458,55 50,55 Z M106,55 L110,55 C111.656854,55 113,56.3431458 113,58 L113,62 L103,62 L103,58 C103,56.3431458 104.343146,55 106,55 Z M78,55 L82,55 C83.6568542,55 85,56.3431458 85,58 L85,62 L75,62 L75,58 C75,56.3431458 76.3431458,55 78,55 Z M134,55 L138,55 C139.656854,55 141,56.3431458 141,58 L141,62 L131,62 L131,58 C131,56.3431458 132.343146,55 134,55 Z M36,193 C34.3431458,193 33,191.656854 33,190 L33,186 L43,186 L43,190 C43,191.656854 41.6568542,193 40,193 L36,193 Z M92,193 C90.3431458,193 89,191.656854 89,190 L89,186 L99,186 L99,190 C99,191.656854 97.6568542,193 96,193 L92,193 Z M64,193 C62.3431458,193 61,191.656854 61,190 L61,186 L71,186 L71,190 C71,191.656854 69.6568542,193 68,193 L64,193 Z M120,193 C118.343146,193 117,191.656854 117,190 L117,186 L127,186 L127,190 C127,191.656854 125.656854,193 124,193 L120,193 Z M50,193 C48.3431458,193 47,191.656854 47,190 L47,186 L57,186 L57,190 C57,191.656854 55.6568542,193 54,193 L50,193 Z M106,193 C104.343146,193 103,191.656854 103,190 L103,186 L113,186 L113,190 C113,191.656854 111.656854,193 110,193 L106,193 Z M78,193 C76.3431458,193 75,191.656854 75,190 L75,186 L85,186 L85,190 C85,191.656854 83.6568542,193 82,193 L78,193 Z M134,193 C132.343146,193 131,191.656854 131,190 L131,186 L141,186 L141,190 C141,191.656854 139.656854,193 138,193 L134,193 Z M18,175 L18,171 C18,169.343146 19.3431458,168 21,168 L25,168 L25,178 L21,178 C19.3431458,178 18,176.656854 18,175 Z M18,119 L18,115 C18,113.343146 19.3431458,112 21,112 L25,112 L25,122 L21,122 C19.3431458,122 18,120.656854 18,119 Z M18,147 L18,143 C18,141.343146 19.3431458,140 21,140 L25,140 L25,150 L21,150 C19.3431458,150 18,148.656854 18,147 Z M18,91 L18,87 C18,85.3431458 19.3431458,84 21,84 L25,84 L25,94 L21,94 C19.3431458,94 18,92.6568542 18,91 Z M18,161 L18,157 C18,155.343146 19.3431458,154 21,154 L25,154 L25,164 L21,164 C19.3431458,164 18,162.656854 18,161 Z M18,105 L18,101 C18,99.3431458 19.3431458,98 21,98 L25,98 L25,108 L21,108 C19.3431458,108 18,106.656854 18,105 Z M18,133 L18,129 C18,127.343146 19.3431458,126 21,126 L25,126 L25,136 L21,136 C19.3431458,136 18,134.656854 18,133 Z M18,77 L18,73 C18,71.3431458 19.3431458,70 21,70 L25,70 L25,80 L21,80 C19.3431458,80 18,78.6568542 18,77 Z M156,73 L156,77 C156,78.6568542 154.656854,80 153,80 L149,80 L149,70 L153,70 C154.656854,70 156,71.3431458 156,73 Z M156,129 L156,133 C156,134.656854 154.656854,136 153,136 L149,136 L149,126 L153,126 C154.656854,126 156,127.343146 156,129 Z M156,101 L156,105 C156,106.656854 154.656854,108 153,108 L149,108 L149,98 L153,98 C154.656854,98 156,99.3431458 156,101 Z M156,157 L156,161 C156,162.656854 154.656854,164 153,164 L149,164 L149,154 L153,154 C154.656854,154 156,155.343146 156,157 Z M156,87 L156,91 C156,92.6568542 154.656854,94 153,94 L149,94 L149,84 L153,84 C154.656854,84 156,85.3431458 156,87 Z M156,143 L156,147 C156,148.656854 154.656854,150 153,150 L149,150 L149,140 L153,140 C154.656854,140 156,141.343146 156,143 Z M156,115 L156,119 C156,120.656854 154.656854,122 153,122 L149,122 L149,112 L153,112 C154.656854,112 156,113.343146 156,115 Z M156,171 L156,175 C156,176.656854 154.656854,178 153,178 L149,178 L149,168 L153,168 C154.656854,168 156,169.343146 156,171 Z M33,64 L141,64 C144.313708,64 147,66.6862915 147,70 L147,178 C147,181.313708 144.313708,184 141,184 L33,184 C29.6862915,184 27,181.313708 27,178 L27,70 C27,66.6862915 29.6862915,64 33,64 Z M33,65 C30.2385763,65 28,67.2385763 28,70 L28,178 C28,180.761424 30.2385763,183 33,183 L141,183 C143.761424,183 146,180.761424 146,178 L146,70 C146,67.2385763 143.761424,65 141,65 L33,65 Z"></path>
                        </g>
                    </g>
                </g>
            </g>
        </g>
    </g>
</svg>