<?xml version="1.0" encoding="UTF-8"?>
<svg width="18px" height="23px" viewBox="0 0 18 23" version="1.1" xmlns="http://www.w3.org/2000/svg" xmlns:xlink="http://www.w3.org/1999/xlink">
    <!-- Generator: sketchtool 50.2 (55047) - http://www.bohemiancoding.com/sketch -->
    <title>CDDA1972-CD13-4E52-872F-BCA21D243746</title>
    <desc>Created with sketchtool.</desc>
    <defs></defs>
    <g id="Page-1" stroke="none" stroke-width="1" fill="none" fill-rule="evenodd">
        <g id="Cost-&amp;-Plans" transform="translate(-107.000000, -453.000000)" fill="#AEBECD" fill-rule="nonzero">
            <g id="Group-12" transform="translate(107.000000, 453.000000)">
                <g id="ic_sd_storage_48px">
                    <path d="M15.75,0 L6.75,0 L0.0225,6.75 L0,20.25 C0,21.4875 1.0125,22.5 2.25,22.5 L15.75,22.5 C16.9875,22.5 18,21.4875 18,20.25 L18,2.25 C18,1.0125 16.9875,0 15.75,0 Z M9,6.75 L6.75,6.75 L6.75,2.25 L9,2.25 L9,6.75 Z M12.375,6.75 L10.125,6.75 L10.125,2.25 L12.375,2.25 L12.375,6.75 Z M15.75,6.75 L13.5,6.75 L13.5,2.25 L15.75,2.25 L15.75,6.75 Z" id="Shape"></path>
                </g>
            </g>
        </g>
    </g>
</svg>